<?xml version="1.0" standalone="no"?>
<!DOCTYPE svg PUBLIC "-//W3C//DTD SVG 20010904//EN"
 "http://www.w3.org/TR/2001/REC-SVG-20010904/DTD/svg10.dtd">
<svg version="1.0" xmlns="http://www.w3.org/2000/svg"
 width="320.000000pt" height="320.000000pt" viewBox="0 0 320.000000 320.000000"
 preserveAspectRatio="xMidYMid meet">
<metadata>
Created by potrace 1.14, written by Peter Selinger 2001-2017
</metadata>
<g transform="translate(0.000000,320.000000) scale(0.100000,-0.100000)"
fill="#000000" stroke="none">
<path d="M2971 2538 c-59 -39 -64 -41 -76 -24 -14 19 -46 19 -52 0 -2 -7 3
-19 12 -27 14 -15 13 -18 -11 -34 -25 -16 -27 -16 -39 0 -7 9 -20 17 -29 17
-24 0 -33 -30 -12 -45 15 -11 14 -14 -7 -28 -21 -13 -25 -13 -46 4 -13 10 -27
16 -32 13 -12 -7 -11 -41 1 -49 6 -3 -6 -21 -25 -39 -19 -18 -35 -39 -35 -47
0 -7 18 -43 40 -81 45 -75 63 -83 120 -53 26 14 30 14 30 1 0 -20 36 -40 45
-25 4 5 4 21 1 34 -5 18 0 28 16 39 21 15 23 15 29 -3 4 -10 14 -21 23 -24 20
-8 40 25 24 41 -8 8 -8 15 1 25 15 19 51 28 51 14 0 -23 17 -38 34 -31 14 5
16 14 12 38 -6 30 -3 32 58 64 45 24 66 40 70 58 13 50 -19 130 -66 166 -55
42 -67 42 -137 -4z m4 -58 c3 -6 -1 -17 -10 -26 -12 -13 -18 -14 -30 -4 -12
10 -13 16 -4 26 13 16 35 18 44 4z m-65 -57 c0 -7 -14 -20 -31 -29 -26 -13
-33 -14 -40 -2 -6 9 1 21 24 40 31 26 46 23 47 -9z m-87 -62 c-1 -2 -14 -12
-29 -22 -26 -17 -29 -17 -40 -1 -10 14 -7 20 20 38 28 20 32 20 40 5 6 -9 9
-18 9 -20z m234 -24 c-2 -6 -11 -15 -20 -21 -25 -15 -44 14 -21 31 18 13 47 6
41 -10z m-324 -17 c6 -23 -10 -37 -25 -22 -12 12 -4 42 11 42 5 0 11 -9 14
-20z m236 -41 c-13 -10 -32 -19 -41 -19 -30 0 -20 34 15 51 28 14 33 15 41 1
6 -11 2 -20 -15 -33z m-79 -27 c0 -26 -47 -47 -67 -30 -13 10 -11 14 9 30 30
23 58 23 58 0z m-97 -66 c-20 -11 -36 13 -21 31 9 11 13 10 24 -4 10 -15 10
-19 -3 -27z"/>
<path d="M2507 2216 c-32 -18 -63 -38 -68 -43 -9 -9 66 -153 80 -153 4 0 30
15 58 33 28 17 59 37 69 43 17 10 15 16 -24 82 -24 40 -46 72 -50 72 -4 0 -33
-16 -65 -34z"/>
<path d="M2323 2111 c-34 -20 -65 -39 -68 -43 -5 -5 55 -120 82 -157 3 -5 142
79 148 90 9 14 -72 149 -88 148 -7 0 -40 -17 -74 -38z"/>
<path d="M2160 2019 c-85 -48 -84 -41 -33 -127 25 -42 47 -79 49 -81 2 -2 35
16 73 40 68 42 70 44 56 66 -8 12 -23 37 -34 56 -31 55 -45 77 -51 77 -3 0
-30 -14 -60 -31z"/>
<path d="M2005 1930 c-27 -16 -54 -31 -59 -33 -11 -4 82 -167 96 -167 13 0 96
49 104 61 4 7 -82 170 -89 169 -1 0 -24 -14 -52 -30z"/>
<path d="M1237 1914 c-69 -17 -120 -54 -217 -155 -47 -49 -98 -93 -115 -99
-28 -11 -55 -11 -270 -6 -141 4 -263 -30 -367 -102 -243 -168 -265 -405 -73
-758 227 -415 497 -530 800 -339 102 64 166 144 247 311 86 175 82 172 237
214 140 38 198 67 248 124 80 91 87 228 20 388 -15 35 -15 38 3 51 18 12 16
17 -33 100 -49 82 -54 87 -79 81 -16 -3 -28 -1 -28 4 0 5 -28 38 -62 72 -102
102 -208 141 -311 114z m407 -327 c51 -86 51 -87 33 -87 -15 0 -118 170 -110
183 8 13 23 -7 77 -96z m-129 3 c14 -22 25 -42 25 -45 0 -4 14 -26 30 -50 19
-28 26 -46 19 -50 -6 -4 -12 -5 -14 -4 -10 12 -105 174 -105 181 0 20 22 5 45
-32z m-5 -191 c0 -27 -25 1 -73 84 -36 60 -51 94 -44 99 10 6 117 -161 117
-183z m-257 135 c23 -5 26 -8 16 -20 -7 -9 -31 -14 -66 -14 -173 0 -242 -201
-105 -304 27 -20 105 -32 145 -22 33 8 95 68 103 100 5 23 30 46 49 46 13 0
-7 -65 -31 -102 -13 -20 -45 -49 -70 -64 -139 -81 -314 22 -314 185 0 61 45
139 100 172 57 35 96 40 173 23z m148 -107 c26 -44 38 -72 32 -78 -12 -12
-127 176 -117 192 7 12 23 -9 85 -114z m-142 40 c104 -53 108 -196 8 -266 -30
-22 -114 -20 -154 3 -63 38 -92 130 -60 192 44 86 123 113 206 71z m-529 -399
c85 -144 156 -268 158 -274 4 -16 -87 -70 -97 -58 -8 9 -288 480 -310 521 -10
20 -8 25 26 47 21 14 45 25 53 25 9 1 74 -100 170 -261z"/>
<path d="M1862 1849 c-28 -17 -52 -33 -52 -35 0 -9 91 -164 98 -167 4 -2 30
10 58 28 l51 31 -44 74 c-24 41 -47 80 -51 87 -5 8 -22 3 -60 -18z"/>
<path d="M1728 1774 c-21 -13 -38 -27 -38 -29 0 -8 92 -165 100 -170 3 -2 27
8 52 23 l46 27 -52 88 c-28 48 -55 87 -61 86 -5 0 -27 -11 -47 -25z"/>
</g>
</svg>
